<svg width="1130" height="256" viewBox="0 0 1130 256" fill="none" xmlns="http://www.w3.org/2000/svg">
<path fill-rule="evenodd" clip-rule="evenodd" d="M149.956 18.4555C119.543 18.2826 72.832 18.017 71.6323 19.5959L71.622 19.5859L69.3623 20.2359L55.9721 6.84593C66.7929 -1.28505 111.078 -0.254228 143.492 0.500289C157.721 0.831465 169.662 1.10942 175.482 0.535933C187.132 0.375899 187.062 18.6159 175.482 18.4559C174.041 18.5925 163.651 18.5334 149.956 18.4555ZM74.122 40.0559C75.6899 38.1801 58.8666 21.953 47.7329 11.2139L47.7299 11.2106C42.6015 6.26488 38.6816 2.48381 38.3222 1.80589C34.8422 -1.91408 28.0825 0.875899 28.2622 5.97594V24.7659C27.7802 27.4392 33.1508 32.4101 37.163 36.1233C38.9741 37.7994 40.5082 39.2193 41.102 40.0559C40.8613 40.5561 36.7719 44.5349 31.2587 49.8987L31.2397 49.9176L31.2177 49.9383C18.4316 62.3771 -1.96245 82.2176 0.152293 83.4459V102.236C-0.0176292 107.326 6.71235 110.136 10.2124 106.406L72.3823 44.2359C73.4921 43.1259 74.1123 41.6459 74.1123 40.0659L74.122 40.0559ZM546.732 0.535933H638.372L638.382 0.545882C650.032 0.375899 649.962 18.6359 638.382 18.4659H546.742C527.682 18.4359 512.262 25.8559 513.322 45.1659H630.952C635.892 45.1659 639.912 49.1859 639.912 54.1259C639.912 59.0659 635.892 63.0859 630.952 63.0859H513.322V98.7359C513.362 104.426 508.172 108.336 502.702 107.696L502.502 107.496C498.442 106.636 495.392 103.036 495.392 98.7259V42.9559C495.462 14.7459 518.852 0.235884 546.732 0.535933ZM372.982 9.5059C372.982 4.5659 377.002 0.545882 381.942 0.545882L381.952 0.535933C386.892 0.535933 390.912 4.55589 390.912 9.49589V65.2659C390.912 88.6559 371.882 107.686 348.492 107.686C340.986 107.19 332.04 107.517 322.543 107.864C285.516 109.217 240.108 110.877 238.962 65.2659V9.49589C238.962 4.55589 242.982 0.535933 247.922 0.535933C252.862 0.535933 256.882 4.55589 256.882 9.49589V65.2659C256.882 78.7759 267.872 89.7659 281.382 89.7659H305.972V16.9359C305.972 11.9959 309.992 7.97594 314.932 7.97594C319.872 7.97594 323.892 11.9959 323.892 16.9359V89.7759H348.482C361.992 89.7759 372.982 78.7859 372.982 65.2759V9.5059ZM833.18 155.53C825.626 156.405 812.717 155.985 797.883 155.503C764.051 154.404 720.206 152.979 707.04 165.84C692.019 175.515 693.195 204.641 694.124 227.663C694.474 236.338 694.789 244.145 694.19 249.72C694.19 252.46 696.41 254.68 699.15 254.68C701.89 254.68 704.11 252.47 704.11 249.73V210.07H825.74C828.48 210.07 830.7 207.85 830.7 205.11C830.7 202.37 828.48 200.15 825.74 200.15H704.11C701.52 176.86 718.06 165.06 741.53 165.45H833.17C839.56 165.55 839.63 155.44 833.17 155.54L833.18 155.53ZM566.24 155.489C589.029 154.919 618.132 154.191 629.99 165.84C638.39 172.68 642.83 182.39 642.83 193.95C642.839 195.786 642.877 197.711 642.916 199.696C643.229 215.481 643.617 235.077 629.99 244.36C621.69 251.1 609.76 254.67 595.49 254.67C590.142 254.344 583.168 254.519 575.476 254.713C552.687 255.285 523.587 256.015 511.73 244.36C503.33 237.52 498.89 227.81 498.89 216.25C498.881 214.414 498.843 212.489 498.803 210.504C498.491 194.719 498.103 175.123 511.73 165.84C520.03 159.1 531.96 155.53 546.23 155.53C551.577 155.855 558.549 155.681 566.24 155.489ZM568.081 244.809C596.452 245.894 632.91 247.287 632.91 216.26L632.92 216.27C634.06 185.16 633.76 166.73 595.5 165.45C590.582 165.843 583.519 165.643 575.584 165.417C554.672 164.824 527.706 164.058 518 173.54C508.141 180.005 508.494 194.907 508.786 207.193C508.863 210.472 508.936 213.564 508.81 216.26C509.06 236.81 525.89 244.7 546.23 244.77C552.048 244.196 559.713 244.489 568.081 244.809ZM364.435 200.108C392.096 199.278 429.35 198.161 438.35 207.39C459.42 226.77 442.47 256.58 414.31 254.67H312.26C309.52 254.67 307.3 252.45 307.3 249.71C307.3 246.97 309.52 244.75 312.26 244.75H414.31C445.28 246.65 445.27 208.15 414.31 210.05H336.8C318.75 210.23 303.67 201.04 303.59 182.79C303.66 164.55 318.75 155.35 336.8 155.53H431.42C437.87 155.41 437.82 165.56 431.42 165.44H336.8C321.99 165.44 313.5 171.76 313.5 182.79C313.5 193.82 321.99 200.14 336.8 200.14C342.056 200.779 352.326 200.471 364.435 200.108ZM1033.8 246.12H1129.85V255.12H1033.8V246.12ZM889.5 160.49C889.5 163.23 891.72 165.45 894.46 165.45H956.52V249.72C956.52 252.46 958.74 254.68 961.48 254.68C964.22 254.68 966.44 252.46 966.44 249.72V165.45H1018.03L1027.94 155.54H894.47C891.73 155.54 889.51 157.76 889.51 160.5L889.5 160.49ZM443.222 0.545882C438.282 0.545882 434.262 4.5659 434.262 9.5059V98.7359C434.262 103.676 438.282 107.696 443.222 107.696C448.162 107.696 452.182 103.676 452.182 98.7359V9.49589C452.182 4.55589 448.162 0.535933 443.222 0.535933V0.545882ZM699.662 0.545882C688.042 0.385909 688.042 18.6259 699.662 18.4659H757.712V98.7359C757.712 103.676 761.732 107.696 766.672 107.696C771.612 107.696 775.632 103.676 775.632 98.7359V18.4559H841.472L823.552 0.535933H699.662V0.545882ZM158.382 45.1559C169.202 45.1559 178.392 47.9659 184.942 53.2959C199.102 63.9859 199.102 88.8459 184.942 99.5459C174.826 110.308 122.051 108.817 83.3891 107.725C65.7192 107.226 50.997 106.811 44.642 107.686L62.5624 89.7659H158.392C167.202 89.7659 177.692 87.4459 177.692 76.4159C177.692 65.3859 167.192 63.0659 158.392 63.0659L64.9624 61.3559L80.852 45.4659C84.5615 45.092 122.143 45.1319 143.806 45.155C151.111 45.1627 156.607 45.1686 158.382 45.1559Z" fill="black"/>
</svg>
